<svg id="Layer_1" data-name="Layer 1" xmlns="http://www.w3.org/2000/svg" viewBox="0 0 252.93 120.03"><defs><style>.cls-1,.cls-3{fill:#fff;}.cls-2{fill:#00e1ff;}.cls-3{font-size:30.84px;font-family:Montserrat-Regular, Montserrat;}.cls-4{letter-spacing:-0.03em;}.cls-5{letter-spacing:-0.02em;}.cls-6{letter-spacing:0em;}.cls-7{letter-spacing:-0.01em;}</style></defs><path class="cls-1" d="M23.35,87.9A30.22,30.22,0,0,1,11.53,76.2a33.7,33.7,0,0,1-4.29-17,33.35,33.35,0,0,1,4.29-16.91A30.33,30.33,0,0,1,23.35,30.68a34.86,34.86,0,0,1,17.1-4.16,33.14,33.14,0,0,1,14.88,3.24,24.83,24.83,0,0,1,7.85,6.05,3.84,3.84,0,0,1-.76,5.67l-.27.18a3.84,3.84,0,0,1-5-.63,19.85,19.85,0,0,0-6-4.53,24,24,0,0,0-10.65-2.39,25.25,25.25,0,0,0-12.56,3.13,21.89,21.89,0,0,0-8.7,8.88,27.08,27.08,0,0,0-3.12,13.11A27,27,0,0,0,19.19,72.4a22,22,0,0,0,8.7,8.82,25.25,25.25,0,0,0,12.56,3.12A24.51,24.51,0,0,0,51.1,82a19.38,19.38,0,0,0,6-4.48,3.83,3.83,0,0,1,5-.62l.28.18a3.84,3.84,0,0,1,.76,5.67,24.82,24.82,0,0,1-7.91,6,33.24,33.24,0,0,1-14.82,3.24A34.86,34.86,0,0,1,23.35,87.9Z"/><path class="cls-1" d="M116.57,30.68a30.18,30.18,0,0,1,11.83,11.7,33.7,33.7,0,0,1,4.28,17,33.34,33.34,0,0,1-4.28,16.91A30.29,30.29,0,0,1,116.57,87.9a34.79,34.79,0,0,1-17.09,4.16A33.14,33.14,0,0,1,84.6,88.82a24.83,24.83,0,0,1-7.85-6,3.83,3.83,0,0,1,.76-5.67l.27-.18a3.84,3.84,0,0,1,5,.63,19.93,19.93,0,0,0,6,4.53,24,24,0,0,0,10.66,2.39A25.28,25.28,0,0,0,112,81.34a21.89,21.89,0,0,0,8.7-8.88,27.08,27.08,0,0,0,3.12-13.11,27,27,0,0,0-3.12-13.17,22,22,0,0,0-8.7-8.82,25.27,25.27,0,0,0-12.56-3.12,24.55,24.55,0,0,0-10.66,2.32,19.45,19.45,0,0,0-6,4.48,3.84,3.84,0,0,1-5,.62l-.28-.18a3.84,3.84,0,0,1-.76-5.67,24.71,24.71,0,0,1,7.91-6.05,33.24,33.24,0,0,1,14.82-3.24A34.79,34.79,0,0,1,116.57,30.68Z"/><path class="cls-1" d="M146.26.54h1a3.83,3.83,0,0,1,3.82,3.83V87.62a3.82,3.82,0,0,1-3.82,3.83h-1a3.82,3.82,0,0,1-3.83-3.83V4.37A3.83,3.83,0,0,1,146.26.54Z"/><path class="cls-1" d="M167.21.54h1a3.83,3.83,0,0,1,3.83,3.83V87.62a3.82,3.82,0,0,1-3.83,3.83h-1a3.83,3.83,0,0,1-3.83-3.83V4.37A3.84,3.84,0,0,1,167.21.54Z"/><path class="cls-1" d="M244.59,27.1a3.83,3.83,0,0,1,3.49,5.39L218.27,99.26q-3.93,9.08-9.07,12.87a20.25,20.25,0,0,1-12.37,3.79,25,25,0,0,1-8.7-1.47,19,19,0,0,1-4-2,3.85,3.85,0,0,1-1.2-5.26h0a3.82,3.82,0,0,1,5.3-1.2,16,16,0,0,0,8.73,2.45,11.89,11.89,0,0,0,7.54-2.45q3.12-2.44,5.82-8.33L212.42,93a3.82,3.82,0,0,0,0-3.14L186.75,32.5a3.83,3.83,0,0,1,3.49-5.4h.67a3.85,3.85,0,0,1,3.5,2.28l21.3,48.09a2.13,2.13,0,0,0,3.89,0l21.3-48.09a3.85,3.85,0,0,1,3.51-2.28Z"/><ellipse class="cls-2" cx="40.8" cy="59.46" rx="19.77" ry="20.36"/><path class="cls-2" d="M55.63,46s12.25,14.07,27.31.8c13.3-11.72-2.82,13.27-2.82,13.27l3.76,14.17S68.82,60.06,53.24,75.29h0L45.51,59.46Z"/><ellipse class="cls-2" cx="98.01" cy="60.06" rx="19.77" ry="20.36"/><text class="cls-3" transform="translate(80.52 120.34)"><tspan class="cls-4">.</tspan><tspan class="cls-5" x="5.49" y="0">w</tspan><tspan class="cls-6" x="32.13" y="0">o</tspan><tspan class="cls-7" x="51.47" y="0">r</tspan><tspan x="63.58" y="0">k</tspan></text></svg>